<mxfile host="app.diagrams.net" modified="2021-12-22T11:43:00.981Z" agent="5.0 (Macintosh; Intel Mac OS X 10_15_7) AppleWebKit/537.36 (KHTML, like Gecko) Chrome/96.0.4664.110 Safari/537.36" etag="wX-o_JsT9wfXUkOqPAqi" version="16.0.0" type="github">
  <diagram id="yxuxHNnWrpHPxl75nGSL" name="第 1 页">
    <mxGraphModel dx="751" dy="418" grid="1" gridSize="10" guides="1" tooltips="1" connect="1" arrows="1" fold="1" page="1" pageScale="1" pageWidth="827" pageHeight="1169" math="0" shadow="0">
      <root>
        <mxCell id="0" />
        <mxCell id="1" parent="0" />
        <mxCell id="-S0bO_k1jCQli6-VR3wX-14" value="Page" style="rounded=0;whiteSpace=wrap;html=1;verticalAlign=top;align=left;" vertex="1" parent="1">
          <mxGeometry x="110" y="50" width="260" height="400" as="geometry" />
        </mxCell>
        <mxCell id="-S0bO_k1jCQli6-VR3wX-5" value="Page&lt;br&gt;" style="whiteSpace=wrap;html=1;aspect=fixed;verticalAlign=top;align=left;" vertex="1" parent="1">
          <mxGeometry x="440" y="50" width="200" height="200" as="geometry" />
        </mxCell>
        <mxCell id="-S0bO_k1jCQli6-VR3wX-6" style="edgeStyle=orthogonalEdgeStyle;rounded=0;orthogonalLoop=1;jettySize=auto;html=1;entryX=0;entryY=0.5;entryDx=0;entryDy=0;curved=1;" edge="1" parent="1" source="-S0bO_k1jCQli6-VR3wX-1" target="-S0bO_k1jCQli6-VR3wX-5">
          <mxGeometry relative="1" as="geometry" />
        </mxCell>
        <mxCell id="-S0bO_k1jCQli6-VR3wX-1" value="Block" style="rounded=1;whiteSpace=wrap;html=1;" vertex="1" parent="1">
          <mxGeometry x="150" y="100" width="120" height="30" as="geometry" />
        </mxCell>
        <mxCell id="-S0bO_k1jCQli6-VR3wX-8" style="edgeStyle=orthogonalEdgeStyle;rounded=0;orthogonalLoop=1;jettySize=auto;html=1;entryX=0;entryY=0.5;entryDx=0;entryDy=0;curved=1;" edge="1" parent="1" source="-S0bO_k1jCQli6-VR3wX-3" target="-S0bO_k1jCQli6-VR3wX-7">
          <mxGeometry relative="1" as="geometry" />
        </mxCell>
        <mxCell id="-S0bO_k1jCQli6-VR3wX-3" value="Block" style="rounded=1;whiteSpace=wrap;html=1;" vertex="1" parent="1">
          <mxGeometry x="150" y="140" width="120" height="30" as="geometry" />
        </mxCell>
        <mxCell id="-S0bO_k1jCQli6-VR3wX-4" value="Block TODO" style="rounded=1;whiteSpace=wrap;html=1;" vertex="1" parent="1">
          <mxGeometry x="150" y="180" width="120" height="30" as="geometry" />
        </mxCell>
        <mxCell id="-S0bO_k1jCQli6-VR3wX-7" value="Block" style="rounded=1;whiteSpace=wrap;html=1;" vertex="1" parent="1">
          <mxGeometry x="490" y="90" width="120" height="30" as="geometry" />
        </mxCell>
        <mxCell id="-S0bO_k1jCQli6-VR3wX-10" value="Block" style="rounded=1;whiteSpace=wrap;html=1;align=left;verticalAlign=top;" vertex="1" parent="1">
          <mxGeometry x="150" y="220" width="120" height="90" as="geometry" />
        </mxCell>
        <mxCell id="-S0bO_k1jCQli6-VR3wX-12" value="Property" style="ellipse;whiteSpace=wrap;html=1;" vertex="1" parent="1">
          <mxGeometry x="190" y="222" width="60" height="30" as="geometry" />
        </mxCell>
        <mxCell id="-S0bO_k1jCQli6-VR3wX-13" value="Property" style="ellipse;whiteSpace=wrap;html=1;" vertex="1" parent="1">
          <mxGeometry x="190" y="254" width="60" height="30" as="geometry" />
        </mxCell>
        <mxCell id="-S0bO_k1jCQli6-VR3wX-16" value="Block" style="rounded=1;whiteSpace=wrap;html=1;verticalAlign=top;align=left;" vertex="1" parent="1">
          <mxGeometry x="150" y="320" width="120" height="120" as="geometry" />
        </mxCell>
        <mxCell id="-S0bO_k1jCQli6-VR3wX-17" value="文本" style="shape=document;whiteSpace=wrap;html=1;boundedLbl=1;" vertex="1" parent="1">
          <mxGeometry x="190" y="330" width="60" height="20" as="geometry" />
        </mxCell>
        <mxCell id="-S0bO_k1jCQli6-VR3wX-18" value="Media" style="shape=document;whiteSpace=wrap;html=1;boundedLbl=1;" vertex="1" parent="1">
          <mxGeometry x="190" y="360" width="60" height="20" as="geometry" />
        </mxCell>
        <mxCell id="-S0bO_k1jCQli6-VR3wX-19" value="Table" style="shape=document;whiteSpace=wrap;html=1;boundedLbl=1;" vertex="1" parent="1">
          <mxGeometry x="190" y="390" width="60" height="20" as="geometry" />
        </mxCell>
        <mxCell id="-S0bO_k1jCQli6-VR3wX-21" value="Block" style="rounded=1;whiteSpace=wrap;html=1;" vertex="1" parent="1">
          <mxGeometry x="490" y="170" width="120" height="30" as="geometry" />
        </mxCell>
        <mxCell id="-S0bO_k1jCQli6-VR3wX-22" value="..." style="rounded=1;whiteSpace=wrap;html=1;" vertex="1" parent="1">
          <mxGeometry x="490" y="130" width="120" height="30" as="geometry" />
        </mxCell>
      </root>
    </mxGraphModel>
  </diagram>
</mxfile>
